<svg width="56" height="57" viewBox="0 0 56 57" fill="none" xmlns="http://www.w3.org/2000/svg">
<path d="M45.6051 39C46.3576 38.9475 46.9876 38.44 47.1801 37.705L52.4301 18.455C52.7626 17.3 51.8351 16.215 50.6626 16.25L48.9301 16.3375C48.9651 16.88 49.0001 17.44 49.0001 18C49.0001 27.6425 41.1426 35.5 31.5001 35.5C21.8576 35.5 14.0001 27.8175 14.0001 17.9125L13.3001 17.9475L12.0576 15.4625C11.7776 14.8675 11.1651 14.5 10.5001 14.5H5.25008C2.94008 14.5 2.94008 18 5.25008 18H9.41508L10.6051 20.38L15.6101 38.685L14.3501 40.5575C12.9851 42.5875 14.1051 45.51 16.7126 45.93C16.1176 46.665 15.7501 47.5925 15.7501 48.625C15.7501 51.04 17.7101 53 20.1251 53C22.5401 53 24.5001 51.04 24.5001 48.625C24.5001 47.645 24.1501 46.735 23.6076 46H41.1426C40.6001 46.735 40.2501 47.645 40.2501 48.625C40.2501 51.04 42.2101 53 44.6251 53C47.0401 53 49.0001 51.04 49.0001 48.625C49.0001 47.645 48.6501 46.735 48.1076 46H49.0001C51.3101 46 51.3101 42.5 49.0001 42.5H17.2726L18.4801 40.6975L45.6051 39ZM44.6251 47.75C45.1151 47.75 45.5001 48.135 45.5001 48.625C45.5001 49.115 45.1151 49.5 44.6251 49.5C44.1351 49.5 43.7501 49.115 43.7501 48.625C43.7501 48.135 44.1351 47.75 44.6251 47.75ZM20.1251 47.75C20.6151 47.75 21.0001 48.135 21.0001 48.625C21.0001 49.115 20.6151 49.5 20.1251 49.5C19.6351 49.5 19.2501 49.115 19.2501 48.625C19.2501 48.135 19.6351 47.75 20.1251 47.75Z" fill="#711CD9" style="fill:#711CD9;fill:color(display-p3 0.4438 0.1093 0.8526);fill-opacity:1;"/>
<path d="M31.5 4C23.7825 4 17.5 10.2825 17.5 18C17.5 25.7175 23.7825 32 31.5 32C39.2175 32 45.5 25.7175 45.5 18C45.5 10.2825 39.2175 4 31.5 4ZM37.9925 15.7425L30.9925 22.7425C30.31 23.425 29.2075 23.425 28.525 22.7425L25.025 19.2425C23.38 17.5975 25.865 15.13 27.4925 16.775L29.75 19.0325L35.5075 13.275C37.1525 11.63 39.62 14.115 37.975 15.7425H37.9925Z" fill="#CAE966" style="fill:#CAE966;fill:color(display-p3 0.7919 0.9135 0.4011);fill-opacity:1;"/>
</svg>
