<svg width="32" height="32" viewBox="0 0 32 32" fill="none" xmlns="http://www.w3.org/2000/svg">
<rect width="32" height="32" rx="16" fill="white" style="fill:white;fill-opacity:1;"/>
<path fill-rule="evenodd" clip-rule="evenodd" d="M23.6641 10.8828C23.741 10.8586 23.8422 10.907 23.9434 11.04C23.9434 11.04 23.9434 11.04 28.5184 15.4981C28.7856 15.7641 28.7856 16.1672 28.5184 16.3647C28.5184 16.3647 28.5184 16.3647 23.9434 20.8914C23.8422 21.0244 23.741 21.0566 23.6641 21.0163C23.5872 20.976 23.5386 20.8591 23.5386 20.6898V11.173C23.5386 11.0077 23.5872 10.907 23.6641 10.8828Z" fill="#ED1C24" style="fill:#ED1C24;fill:color(display-p3 0.9294 0.1098 0.1412);fill-opacity:1;"/>
<path fill-rule="evenodd" clip-rule="evenodd" d="M15.8379 3.45399H16.1618L16.4735 3.58297C16.4735 3.58297 16.4735 3.58297 21.182 8.24262C21.3845 8.50866 21.3156 8.7102 20.9796 8.7102C20.9796 8.7102 20.9796 8.7102 19.0282 8.7102C18.6922 8.7102 18.4249 8.97623 18.4249 9.31079C18.4249 9.31079 18.4249 9.31079 18.4249 12.7693C18.4249 13.1038 18.1537 13.3698 17.7488 13.3698C17.7488 13.3698 17.7488 13.3698 14.3197 13.3698C13.9836 13.3698 13.7124 13.1038 13.7124 12.7693C13.7124 12.7693 13.7124 12.7693 13.7124 9.31079C13.7124 8.97623 13.4452 8.7102 13.1051 8.7102H11.02C10.684 8.7102 10.6152 8.50866 10.8176 8.24262C10.8176 8.24262 10.8176 8.24262 15.5302 3.58297L15.8379 3.45399Z" fill="#ED1C24" style="fill:#ED1C24;fill:color(display-p3 0.9294 0.1098 0.1412);fill-opacity:1;"/>
<path fill-rule="evenodd" clip-rule="evenodd" d="M8.46144 10.7821C8.54646 10.8224 8.59909 10.9393 8.59909 11.1086V20.8229C8.59909 20.9922 8.54646 21.093 8.46144 21.1252C8.38047 21.1575 8.26306 21.1252 8.12541 21.0244C8.12541 21.0244 8.12541 21.0244 3.48166 16.3648C3.21445 16.1673 3.21445 15.7642 3.48166 15.4982C3.48166 15.4982 3.48166 15.4982 8.12541 10.907C8.26306 10.774 8.38047 10.7418 8.46144 10.7821Z" fill="#ED1C24" style="fill:#ED1C24;fill:color(display-p3 0.9294 0.1098 0.1412);fill-opacity:1;"/>
<path fill-rule="evenodd" clip-rule="evenodd" d="M14.3195 18.4286C14.3195 18.4286 14.3195 18.4286 17.7487 18.4286C18.1536 18.4286 18.4248 18.6946 18.4248 19.0292C18.4248 19.0292 18.4248 19.0292 18.4248 22.6892C18.4248 23.0882 18.692 23.3542 19.0281 23.3542H20.8459C21.1819 23.3542 21.3155 23.5518 21.0483 23.7533C21.0483 23.7533 21.0483 23.7533 16.4734 28.3444C16.3357 28.4774 16.1697 28.546 15.9997 28.546C15.8337 28.546 15.6637 28.4774 15.5301 28.3444C15.5301 28.3444 15.5301 28.3444 10.9551 23.7533C10.6839 23.5518 10.8175 23.3542 11.1535 23.3542C11.1535 23.3542 11.1535 23.3542 13.1049 23.3542C13.445 23.3542 13.7122 23.0882 13.7122 22.6892C13.7122 22.6892 13.7122 22.6892 13.7122 19.0292C13.7122 18.6946 13.9835 18.4286 14.3195 18.4286Z" fill="#ED1C24" style="fill:#ED1C24;fill:color(display-p3 0.9294 0.1098 0.1412);fill-opacity:1;"/>
</svg>
