<svg width="32" height="32" viewBox="0 0 32 32" fill="none" xmlns="http://www.w3.org/2000/svg">
<rect width="32" height="32" rx="16" fill="white" style="fill:white;fill-opacity:1;"/>
<path d="M14.75 12.2497V10.9997H7.25C6.56125 10.9997 6 11.5609 6 12.2497V14.7497H15.0138C14.84 13.9859 14.75 13.1634 14.75 12.2497Z" fill="#711CD9" style="fill:#711CD9;fill:color(display-p3 0.4438 0.1093 0.8526);fill-opacity:1;"/>
<path d="M25.9487 17.2497C25.0962 18.5634 23.7962 19.6809 21.9338 20.7509C21.6475 20.9147 21.325 20.9997 21 20.9997C20.675 20.9997 20.3525 20.9147 20.07 20.7534C18.2075 19.6809 16.9075 18.5622 16.0538 17.2497H6V23.4997C6 24.1897 6.56125 24.7497 7.25 24.7497H24.75C25.44 24.7497 26 24.1897 26 23.4997V17.2497H25.9487ZM11.625 20.9997H9.125C8.78 20.9997 8.5 20.7197 8.5 20.3747C8.5 20.0297 8.78 19.7497 9.125 19.7497H11.625C11.97 19.7497 12.25 20.0297 12.25 20.3747C12.25 20.7197 11.97 20.9997 11.625 20.9997Z" fill="#711CD9" style="fill:#711CD9;fill:color(display-p3 0.4438 0.1093 0.8526);fill-opacity:1;"/>
<path d="M25.6212 9.17593L21.2462 7.30093C21.0875 7.23343 20.9113 7.23343 20.7525 7.30093L16.3775 9.17593C16.1488 9.27343 16 9.49968 16 9.74968V12.2497C16 15.6884 17.2713 17.6984 20.6888 19.6672C20.785 19.7222 20.8925 19.7497 21 19.7497C21.1075 19.7497 21.215 19.7222 21.3112 19.6672C24.7287 17.7034 26 15.6934 26 12.2497V9.74968C26 9.49968 25.8512 9.27343 25.6212 9.17593ZM23.3637 12.0159L20.8637 15.1409C20.7437 15.2884 20.5637 15.3747 20.375 15.3747C20.3663 15.3747 20.3563 15.3747 20.3488 15.3747C20.15 15.3659 19.9662 15.2634 19.855 15.0972L18.605 13.2222C18.4137 12.9347 18.4912 12.5472 18.7787 12.3559C19.0637 12.1659 19.4525 12.2409 19.645 12.5297L20.4212 13.6934L22.3863 11.2359C22.6025 10.9672 22.9963 10.9247 23.265 11.1384C23.535 11.3522 23.5775 11.7459 23.3637 12.0159Z" fill="#819D28" style="fill:#819D28;fill:color(display-p3 0.5069 0.6154 0.1578);fill-opacity:1;"/>
</svg>
