<svg width="32" height="32" viewBox="0 0 32 32" fill="none" xmlns="http://www.w3.org/2000/svg">
<rect width="32" height="32" rx="16" fill="white" style="fill:white;fill-opacity:1;"/>
<g clip-path="url(#clip0_2034_1567)">
<path d="M22.2163 7.83594C20.3875 6.00719 17.9559 5 15.3696 5C12.7838 5 10.3522 6.00719 8.52344 7.83594C6.69469 9.66469 5.6875 12.0963 5.6875 14.6821C5.6875 17.2684 6.69469 19.7 8.52344 21.5288C10.3522 23.3575 12.7838 24.3647 15.3696 24.3647C16.6445 24.3647 17.882 24.1198 19.028 23.6523L18.4333 21.4317C17.4992 21.8575 16.4615 22.0947 15.3696 22.0947C11.2829 22.0947 7.95754 18.7693 7.95754 14.6821C7.95754 10.5954 11.2829 7.27004 15.3696 7.27004C19.4568 7.27004 22.7822 10.5954 22.7822 14.6821C22.7822 16.4013 22.1935 17.986 21.2078 19.245L23.5479 19.8719C24.5276 18.3349 25.0522 16.5487 25.0522 14.6821C25.0522 12.0963 24.045 9.66469 22.2163 7.83594Z" fill="#711CD9" style="fill:#711CD9;fill:color(display-p3 0.4438 0.1093 0.8526);fill-opacity:1;"/>
<path d="M15.3696 8.55908C11.9936 8.55908 9.24658 11.3061 9.24658 14.6821C9.24658 18.0586 11.9936 20.8056 15.3696 20.8056C16.3476 20.8056 17.2731 20.5753 18.0938 20.1658L17.5872 18.2747L19.7438 18.8527L19.8281 18.875C20.8602 17.7789 21.4931 16.3029 21.4931 14.6821C21.4931 11.3061 18.7461 8.55908 15.3696 8.55908ZM17.6294 16.767C17.494 17.0166 17.3153 17.2177 17.0931 17.3711C16.8705 17.5245 16.6153 17.6358 16.3265 17.7046C16.2032 17.7342 16.0782 17.7574 15.9514 17.7737V19.346H14.6624V17.7467C14.4333 17.711 14.2103 17.6607 13.9916 17.5963C13.7574 17.5275 13.5306 17.4446 13.311 17.3483C13.0919 17.2525 12.889 17.1412 12.7026 17.0149L13.3518 15.7258C13.3759 15.7559 13.4541 15.8131 13.586 15.8973C13.7183 15.9815 13.8821 16.0653 14.0776 16.1495C14.2726 16.2337 14.4905 16.3089 14.7311 16.3751C14.9713 16.4413 15.2149 16.4739 15.4612 16.4739C15.9841 16.4739 16.2458 16.3149 16.2458 15.9961C16.2458 15.8762 16.2062 15.777 16.1285 15.6988C16.0503 15.6206 15.942 15.5501 15.804 15.4869C15.6657 15.4238 15.502 15.3653 15.3125 15.3112C15.123 15.2571 14.9172 15.1969 14.695 15.1307C14.4003 15.0405 14.145 14.9429 13.9289 14.8377C13.7123 14.7328 13.5336 14.6112 13.3922 14.4729C13.2508 14.3345 13.146 14.1751 13.0768 13.9951C13.0076 13.8146 12.9733 13.6045 12.9733 13.3638C12.9733 13.0274 13.0364 12.7296 13.1623 12.4714C13.2887 12.2131 13.4601 11.9953 13.6762 11.8178C13.8928 11.6404 14.1433 11.5067 14.429 11.4165C14.5055 11.3924 14.5833 11.3714 14.6624 11.3538V9.904H15.9514V11.337C15.9652 11.3392 15.9794 11.3417 15.9931 11.3443C16.2097 11.3864 16.4168 11.4406 16.6153 11.5067C16.8134 11.5729 16.9986 11.6481 17.1696 11.7319C17.341 11.8165 17.4987 11.9003 17.6431 11.9846L16.9938 13.2104C16.9758 13.1868 16.9126 13.1417 16.8044 13.0755C16.6965 13.0094 16.5612 12.9402 16.3987 12.868C16.2367 12.7958 16.0593 12.7326 15.8668 12.6789C15.6747 12.6248 15.4822 12.5977 15.2901 12.5977C14.7612 12.5977 14.4965 12.7747 14.4965 13.1297C14.4965 13.2375 14.5253 13.3278 14.5824 13.3999C14.6392 13.4721 14.7234 13.5366 14.8347 13.5937C14.946 13.6509 15.0856 13.7033 15.254 13.7514C15.4221 13.7996 15.6176 13.8537 15.8397 13.9138C16.1465 13.9981 16.4228 14.0896 16.6694 14.1888C16.9156 14.2881 17.1245 14.411 17.2959 14.5584C17.4669 14.7058 17.5993 14.8845 17.6925 15.0946C17.7858 15.3052 17.8322 15.5578 17.8322 15.8522C17.8322 16.2127 17.7647 16.5178 17.6294 16.767Z" fill="#711CD9" style="fill:#711CD9;fill:color(display-p3 0.4438 0.1093 0.8526);fill-opacity:1;"/>
<path d="M24.1346 22.9566L25.391 21.7002L19.4106 20.0979L21.0129 26.0783L22.2694 24.8219L24.4474 26.9999L26.3127 25.1347L24.1346 22.9566Z" fill="#819D28" style="fill:#819D28;fill:color(display-p3 0.5069 0.6154 0.1578);fill-opacity:1;"/>
</g>
<defs>
<clipPath id="clip0_2034_1567">
<rect width="22" height="22" fill="white" style="fill:white;fill-opacity:1;" transform="translate(5 5)"/>
</clipPath>
</defs>
</svg>
