<svg xmlns="http://www.w3.org/2000/svg" width="61" height="60" fill="none">
<rect width="60" height="60" x=".667" fill="#fff" rx="30" />
<g clip-path="url(#a)"><path fill="#f7a001" d="M28.323 22.968v-2.344H14.26a2.35 2.35 0 0 0-2.343 2.344v4.688h16.9c-.325-1.432-.494-2.975-.494-4.688M49.32 32.343c-1.598 2.463-4.035 4.559-7.528 6.565a3.53 3.53 0 0 1-3.494.005c-3.492-2.011-5.93-4.109-7.53-6.57H11.916v11.719a2.346 2.346 0 0 0 2.343 2.344h32.813a2.345 2.345 0 0 0 2.344-2.344V32.343zm-26.856 7.031h-4.688a1.172 1.172 0 0 1 0-2.343h4.688a1.172 1.172 0 0 1 0 2.343" />
<path fill="#819D28" d="m48.707 17.205-8.204-3.516a1.18 1.18 0 0 0-.925 0l-8.204 3.516a1.17 1.17 0 0 0-.707 1.076v4.687c0 6.448 2.383 10.217 8.791 13.908a1.18 1.18 0 0 0 1.167 0c6.408-3.682 8.792-7.45 8.792-13.908v-4.687c0-.47-.28-.893-.71-1.076m-4.233 5.325-4.688 5.86a1.19 1.19 0 0 1-.916.438h-.05a1.18 1.18 0 0 1-.925-.52l-2.344-3.516a1.17 1.17 0 1 1 1.95-1.299l1.456 2.182 3.684-4.608a1.172 1.172 0 0 1 1.833 1.463" />
</g>
<defs>
<clipPath id="a"><path fill="#fff" d="M0 0h37.5v37.5H0z" style="fill:#fff;fill-opacity:1" transform="translate(11.917 11.25)"/></clipPath>
</defs>
</svg>