<svg xmlns="http://www.w3.org/2000/svg" width="30" height="30" fill="none"><path fill="#711CD9" d="M26.729.981h-2.804v2.804c0 .56-.467.935-.934.935a.937.937 0 0 1-.935-.935V.98H7.103v2.804c0 .56-.467.935-.935.935a.937.937 0 0 1-.934-.935V.98H2.43C1.028.981 0 2.196 0 3.785v3.364h29.907V3.785c0-1.589-1.683-2.804-3.178-2.804M0 9.112v17.103c0 1.682 1.028 2.804 2.523 2.804h24.3c1.495 0 3.177-1.215 3.177-2.804V9.112zm8.318 15.701H6.075a.737.737 0 0 1-.748-.748V21.73c0-.374.28-.748.748-.748H8.41c.374 0 .748.28.748.748v2.336c-.094.468-.374.748-.841.748m0-8.411H6.075a.737.737 0 0 1-.748-.748v-2.336c0-.374.28-.748.748-.748H8.41c.374 0 .748.28.748.748v2.336c-.094.467-.374.748-.841.748m7.476 8.411h-2.336a.737.737 0 0 1-.748-.748V21.73c0-.374.28-.748.748-.748h2.336c.374 0 .748.28.748.748v2.336c0 .468-.28.748-.748.748m0-8.411h-2.336a.737.737 0 0 1-.748-.748v-2.336c0-.374.28-.748.748-.748h2.336c.374 0 .748.28.748.748v2.336c0 .467-.28.748-.748.748m7.477 8.411h-2.336a.737.737 0 0 1-.748-.748V21.73c0-.374.28-.748.748-.748h2.336c.374 0 .748.28.748.748v2.336c0 .468-.28.748-.748.748m0-8.411h-2.336a.737.737 0 0 1-.748-.748v-2.336c0-.374.28-.748.748-.748h2.336c.374 0 .748.28.748.748v2.336c0 .467-.28.748-.748.748" style="fill:#711cd9;fill:color(display-p3 .4438 .1093 .8526);fill-opacity:1"/><path fill="#819D28" d="M26.729.981h-2.804v2.804c0 .56-.467.935-.934.935a.937.937 0 0 1-.935-.935V.98H7.103v2.804c0 .56-.467.935-.935.935a.937.937 0 0 1-.934-.935V.98H2.43C1.028.981 0 2.196 0 3.785v3.364h29.907V3.785c0-1.589-1.683-2.804-3.178-2.804" style="fill:#819d28;fill:color(display-p3 .5069 .6154 .1578);fill-opacity:1"/></svg>