<svg xmlns="http://www.w3.org/2000/svg" width="61" height="60" fill="none"><rect width="60" height="60" x=".333" fill="#fff" rx="30" style="fill:#fff;fill-opacity:1"/><path fill="#819D28" d="M34.76 7.148h-7.212c-.597 0-1.082.42-1.082.938V9.96c0 .518.485.937 1.082.937h7.212c.597 0 1.081-.42 1.081-.937V8.086c0-.518-.484-.938-1.081-.938" style="fill:#819d28;fill:color(display-p3 .5069 .6154 .1578);fill-opacity:1"/><path fill="#711CD9" d="M31.154 32.227V20.273c-6.591 0-11.953 5.363-11.953 11.954 0 6.59 5.362 11.953 11.953 11.953s11.953-5.362 11.953-11.953z" style="fill:#711cd9;fill:color(display-p3 .4438 .1093 .8526);fill-opacity:1"/><path fill="#819D28" d="m44.179 20.407 1.273-1.27a1.185 1.185 0 0 0 .265-1.295 1.18 1.18 0 0 0-1.103-.733 1.2 1.2 0 0 0-.841.353l-1.326 1.322a17.76 17.76 0 0 0-8.918-3.879v-2.132h-4.75v2.132a17.76 17.76 0 0 0-8.919 3.878l-1.325-1.321a1.188 1.188 0 0 0-1.94 1.29c.06.144.15.275.26.385l1.274 1.27a17.67 17.67 0 0 0-4.788 12.103c0 9.795 7.991 17.763 17.813 17.763s17.812-7.968 17.812-17.763a17.67 17.67 0 0 0-4.788-12.103M31.154 47.115c-2.897 0-5.728-.856-8.137-2.46a14.6 14.6 0 0 1-5.394-6.556 14.57 14.57 0 0 1-.834-8.438 14.6 14.6 0 0 1 4.009-7.478 14.683 14.683 0 0 1 15.96-3.166 14.64 14.64 0 0 1 6.573 5.379 14.58 14.58 0 0 1-1.821 18.442 14.68 14.68 0 0 1-10.356 4.278" style="fill:#819d28;fill:color(display-p3 .5069 .6154 .1578);fill-opacity:1"/></svg>