<svg xmlns="http://www.w3.org/2000/svg" width="60" height="60" fill="none">
<rect width="60" height="60" fill="#fff" rx="30" style="fill:#fff;fill-opacity:1"/>
<g clip-path="url(#a)"><path fill="#f7a001" d="M41.656 14.692a18.04 18.04 0 0 0-12.838-5.317 18.04 18.04 0 0 0-12.837 5.317 18.04 18.04 0 0 0-5.317 12.837c0 4.85 1.889 9.409 5.317 12.838a18.04 18.04 0 0 0 12.837 5.317c2.39 0 4.71-.46 6.86-1.336l-1.115-4.164a13.8 13.8 0 0 1-5.745 1.244c-7.663 0-13.898-6.235-13.898-13.899s6.235-13.898 13.898-13.898c7.664 0 13.899 6.235 13.899 13.898 0 3.224-1.104 6.195-2.952 8.555l4.387 1.176a18.03 18.03 0 0 0 2.82-9.731c0-4.849-1.888-9.408-5.316-12.837" />
<path fill="#f7a001" d="M28.818 16.048c-6.33 0-11.481 5.151-11.481 11.481 0 6.331 5.15 11.482 11.48 11.482 1.834 0 3.57-.432 5.108-1.2l-.95-3.546 4.044 1.084.158.042a11.44 11.44 0 0 0 3.122-7.862c0-6.33-5.15-11.48-11.481-11.48m4.237 15.39a3.2 3.2 0 0 1-1.006 1.133 4.2 4.2 0 0 1-1.437.625q-.347.085-.703.13v2.948H27.49v-2.999a10 10 0 0 1-1.257-.282q-.66-.194-1.276-.465a7 7 0 0 1-1.141-.625l1.217-2.417q.068.085.44.322.37.235.921.472.549.238 1.225.423.676.186 1.37.186 1.47 0 1.47-.896a.76.76 0 0 0-.22-.558 2.1 2.1 0 0 0-.608-.397 6.6 6.6 0 0 0-.922-.33q-.532-.152-1.157-.338a10 10 0 0 1-1.437-.55 3.8 3.8 0 0 1-1.006-.683 2.5 2.5 0 0 1-.591-.896 3.3 3.3 0 0 1-.195-1.184q0-.946.355-1.673.355-.726.963-1.226a4.2 4.2 0 0 1 1.412-.752q.215-.068.438-.118V18.57h2.416v2.687l.079.014q.609.118 1.166.304.558.186 1.04.422.482.238.887.474l-1.217 2.299q-.05-.068-.355-.253a7.232 7.232 0 0 0-1.758-.744 4 4 0 0 0-1.081-.152q-1.488 0-1.489.997 0 .304.162.507.16.203.473.363.312.162.786.296.473.135 1.098.305.862.236 1.556.515.692.279 1.174.693t.744 1.005q.262.593.262 1.42 0 1.015-.38 1.716" />
<path fill="#819D28" d="m45.253 43.044 2.355-2.356-11.213-3.004 3.004 11.213 2.356-2.356 4.084 4.084 3.497-3.497z" />
</g>
<defs>
<clipPath id="a"><path fill="#fff" d="M0 0h41.25v41.25H0z" style="fill:#fff;fill-opacity:1" transform="translate(9.375 9.375)"/></clipPath>
</defs>
</svg>