<svg xmlns="http://www.w3.org/2000/svg" width="38" height="38" fill="none">
<path fill="#f7a001" d="M27.907 2.594H8.22a2.343 2.343 0 0 0-2.344 2.344v27.114c0 .325.35.531.634.374l2.208-1.216a.43.43 0 0 1 .412 0l2.635 1.452a.43.43 0 0 0 .412 0l2.634-1.452a.43.43 0 0 1 .413 0l2.634 1.452a.43.43 0 0 0 .413 0l1.598-.881a9.5 9.5 0 0 1-.816-3.857c0-5.289 4.302-9.59 9.59-9.59.55 0 1.085.057 1.61.146V4.938a2.343 2.343 0 0 0-2.345-2.344m-9.841 20.158h-6.668a1.055 1.055 0 0 1 0-2.109h6.667a1.055 1.055 0 0 1 .001 2.11m6.667-5.403H11.398a1.055 1.055 0 0 1 0-2.11h13.334a1.055 1.055 0 0 1 0 2.11m0-5.404H11.398a1.055 1.055 0 0 1 0-2.11h13.334a1.055 1.055 0 0 1 0 2.11" />
<path fill="#819D28" d="M28.642 20.444a7.481 7.481 0 1 0 0 14.962 7.481 7.481 0 0 0 0-14.962m1.054 11.11v.182c0 .582-.472 1.055-1.055 1.055-.552 0-.991-.43-1.037-.97a1.827 1.827 0 0 1-1.548-1.814 1.055 1.055 0 0 1 2.073-.277c.811-.061 1.256-.273 1.284-.427-.015.01-.234-.172-1.005-.348-1.834-.417-2.72-1.269-2.634-2.528.044-.652.371-1.648 1.815-2.137v-.175a1.047 1.047 0 0 1 2.092-.089c.369.059.708.225.982.49.358.346.563.83.563 1.328a1.055 1.055 0 0 1-2.072.279c-.822.06-1.263.261-1.274.446 0-.048.175.14.998.328 2.228.508 2.67 1.612 2.647 2.447-.017.554-.267 1.676-1.83 2.21" />
</svg>