<svg xmlns="http://www.w3.org/2000/svg" width="38" height="38" fill="none"><g fill-rule="evenodd" clip-path="url(#a)" clip-rule="evenodd"><path fill="#711CD9" d="m15.697 4.27 4.624 1.798-13.806 5.368-4.836-1.88L15.272 4.27a.56.56 0 0 1 .425 0m14.4 15.44a7.03 7.03 0 1 1 0 14.062 7.03 7.03 0 0 1 0-14.062m2.662 3.825L28.594 27.7l-1.421-1.789a1.018 1.018 0 0 0-1.593 1.266l2.092 2.632a1.02 1.02 0 0 0 1.557.139l4.971-4.972a1.019 1.019 0 1 0-1.441-1.441m-7.5-15.547-13.806 5.368 4.032 1.568L29.29 9.555zm4.838 2.507L16.07 15.95v16.246l6.379-2.48a8.203 8.203 0 0 1 7.647-11.176zm-15.198 21.7V15.949l-4.251-1.653v3.43a.194.194 0 0 1-.32.148L8.07 15.953l-2.11.656a.194.194 0 0 1-.251-.185v-4.048l-4.837-1.88V26.34c0 .247.143.457.373.546z" style="fill:#711cd9;fill:color(display-p3 .4438 .1093 .8526);fill-opacity:1"/><path fill="#819D28" d="M30.097 19.71a7.03 7.03 0 1 1 0 14.062 7.03 7.03 0 0 1 0-14.062m2.662 3.825L28.594 27.7l-1.421-1.789a1.017 1.017 0 0 0-1.593 1.266l2.092 2.632a1.02 1.02 0 0 0 1.557.139l4.971-4.972a1.019 1.019 0 1 0-1.441-1.441" style="fill:#819d28;fill:color(display-p3 .5069 .6154 .1578);fill-opacity:1"/></g><defs><clipPath id="a"><path fill="#fff" d="M0 0h37.5v37.5H0z" style="fill:#fff;fill-opacity:1" transform="translate(.25 .25)"/></clipPath></defs></svg>