<svg xmlns="http://www.w3.org/2000/svg" width="38" height="38" fill="none"><path fill="#711CD9" fill-rule="evenodd" d="M11.364 22.382a6.97 6.97 0 1 1 0 13.94 6.97 6.97 0 0 1 0-13.94M28.34 6.28c-.832 0-1.519.684-1.52 1.517q0 4.797.002 9.593a.51.51 0 1 1-1.021 0V5.664c0-.832-.685-1.518-1.518-1.52-.833 0-1.52.685-1.52 1.518l.002 11.728a.51.51 0 0 1-1.021 0L21.74 3.196c0-.833-.685-1.518-1.517-1.519-.833 0-1.52.684-1.52 1.517 0 4.732-.007 9.464-.012 14.196a.51.51 0 0 1-1.021 0l.012-12.55c0-.834-.685-1.52-1.518-1.52s-1.52.684-1.52 1.517l.002 13.669c-.007.773-.358 1.485-1.097 1.78-.623.25-1.362.11-1.847-.357l-2.459-2.471a1.525 1.525 0 0 0-2.146-.001 1.525 1.525 0 0 0-.004 2.144l2.084 2.058a7.996 7.996 0 0 1 10.064 9.067 6.3 6.3 0 0 0 1.713.237h2.577c3.468 0 6.314-2.837 6.316-6.306l.008-16.858c.001-.832-.684-1.518-1.517-1.52M7.573 26.656a.367.367 0 0 0 0 .518l2.178 2.178-2.178 2.179a.367.367 0 0 0 0 .517l1.095 1.096a.367.367 0 0 0 .518 0l2.178-2.179 2.178 2.179a.367.367 0 0 0 .518 0l1.096-1.096a.367.367 0 0 0 0-.517l-2.179-2.179 2.179-2.178a.367.367 0 0 0 0-.518L14.06 25.56a.367.367 0 0 0-.518 0l-2.178 2.178-2.178-2.178a.367.367 0 0 0-.518 0z" clip-rule="evenodd" style="fill:#711cd9;fill:color(display-p3 .4438 .1093 .8526);fill-opacity:1"/><path fill="#CB2B4B" fill-rule="evenodd" d="M11.364 22.382a6.97 6.97 0 1 1 0 13.94 6.97 6.97 0 0 1 0-13.94m-3.791 4.274a.367.367 0 0 0 0 .518l2.178 2.178-2.178 2.178a.367.367 0 0 0 0 .518l1.095 1.096a.367.367 0 0 0 .518 0l2.178-2.179 2.178 2.179a.367.367 0 0 0 .518 0l1.096-1.096a.367.367 0 0 0 0-.518l-2.179-2.178 2.179-2.178a.367.367 0 0 0 0-.518L14.06 25.56a.367.367 0 0 0-.518 0l-2.178 2.178-2.178-2.178a.367.367 0 0 0-.518 0z" clip-rule="evenodd" style="fill:#cb2b4b;fill:color(display-p3 .7949 .1681 .2935);fill-opacity:1"/></svg>