<svg width="32" height="32" viewBox="0 0 32 32" fill="none" xmlns="http://www.w3.org/2000/svg">
<rect width="32" height="32" rx="16" fill="white" style="fill:white;fill-opacity:1;"/>
<g clip-path="url(#clip0_2034_1416)">
<path d="M25.73 12.5683L16.355 6.11C16.1417 5.96333 15.86 5.96333 15.6458 6.11L6.27083 12.5683C6.10083 12.685 6 12.8775 6 13.0833V25.1667C6 25.6267 6.37333 26 6.83333 26H8.5V16C8.5 15.54 8.87333 15.1667 9.33333 15.1667H22.6667C23.1267 15.1667 23.5 15.54 23.5 16V26H25.1667C25.6267 26 26 25.6267 26 25.1667V13.0833C26 12.8775 25.8992 12.685 25.73 12.5683Z" fill="#711CD9" style="fill:#711CD9;fill:color(display-p3 0.4438 0.1093 0.8526);fill-opacity:1;"/>
<path d="M13.7085 21.8333V22.4583C13.7085 22.8033 13.4285 23.0833 13.0835 23.0833C12.7385 23.0833 12.4585 22.8033 12.4585 22.4583V21.8333H11.0002C10.7702 21.8333 10.5835 22.02 10.5835 22.25V25.5833C10.5835 25.8133 10.7702 26 11.0002 26H15.1668C15.3968 26 15.5835 25.8133 15.5835 25.5833V22.25C15.5835 22.02 15.3968 21.8333 15.1668 21.8333H13.7085Z" fill="#819D28" style="fill:#819D28;fill:color(display-p3 0.5069 0.6154 0.1578);fill-opacity:1;"/>
<path d="M19.5415 21.8333V22.4583C19.5415 22.8033 19.2615 23.0833 18.9165 23.0833C18.5715 23.0833 18.2915 22.8033 18.2915 22.4583V21.8333H16.8332C16.6032 21.8333 16.4165 22.02 16.4165 22.25V25.5833C16.4165 25.8133 16.6032 26 16.8332 26H20.9998C21.2298 26 21.4165 25.8133 21.4165 25.5833V22.25C21.4165 22.02 21.2298 21.8333 20.9998 21.8333H19.5415Z" fill="#819D28" style="fill:#819D28;fill:color(display-p3 0.5069 0.6154 0.1578);fill-opacity:1;"/>
<path d="M16.625 16.8334V17.4584C16.625 17.8034 16.345 18.0834 16 18.0834C15.655 18.0834 15.375 17.8034 15.375 17.4584V16.8334H13.9167C13.6867 16.8334 13.5 17.02 13.5 17.25V20.5834C13.5 20.8134 13.6867 21 13.9167 21H18.0833C18.3133 21 18.5 20.8134 18.5 20.5834V17.25C18.5 17.02 18.3133 16.8334 18.0833 16.8334H16.625Z" fill="#819D28" style="fill:#819D28;fill:color(display-p3 0.5069 0.6154 0.1578);fill-opacity:1;"/>
</g>
<defs>
<clipPath id="clip0_2034_1416">
<rect width="20" height="20" fill="white" style="fill:white;fill-opacity:1;" transform="translate(6 6)"/>
</clipPath>
</defs>
</svg>
