<svg width="32" height="32" viewBox="0 0 32 32" fill="none" xmlns="http://www.w3.org/2000/svg">
<rect width="32" height="32" rx="16" fill="white" style="fill:white;fill-opacity:1;"/>
<path d="M17.1719 7.21094H19.5156V11.3125H17.1719V7.21094Z" fill="#819D28" style="fill:#819D28;fill:color(display-p3 0.5069 0.6154 0.1578);fill-opacity:1;"/>
<path d="M25.4141 7.21094H20.6875V11.8984C20.6875 12.222 20.4252 12.4844 20.1016 12.4844H16.5859C16.2623 12.4844 16 12.222 16 11.8984V7.21094H11.3125C10.9889 7.21094 10.7266 7.47328 10.7266 7.79688V14.8592C10.9195 14.8309 11.1152 14.8163 11.3125 14.8163C12.3924 14.8163 13.4284 15.2502 14.1871 16H16.5859C17.8783 16 18.9297 17.0514 18.9297 18.3437C18.9297 19.6361 17.8783 20.6875 16.5859 20.6875H20.6875C21.7776 20.6875 22.6963 21.4355 22.9571 22.4453H25.4141C25.7377 22.4453 26 22.1829 26 21.8593V7.79688C26 7.47328 25.7377 7.21094 25.4141 7.21094Z" fill="#819D28" style="fill:#819D28;fill:color(display-p3 0.5069 0.6154 0.1578);fill-opacity:1;"/>
<path d="M20.6875 21.8594H15.4141C14.1196 21.8594 13.0703 20.81 13.0703 19.5156H16.5859C17.2332 19.5156 17.7578 18.991 17.7578 18.3438C17.7578 17.6965 17.2332 17.1719 16.5859 17.1719H13.6562C13.1073 16.4275 12.2374 15.9882 11.3125 15.9882C10.3876 15.9882 9.5177 16.4275 8.96875 17.1719H8.38281V16.7813C8.38281 16.4577 8.12047 16.1953 7.79688 16.1953H6.58594C6.26234 16.1953 6 16.4577 6 16.7813V24.2031C6 24.5267 6.26234 24.7891 6.58594 24.7891H7.79688C8.12047 24.7891 8.38281 24.5267 8.38281 24.2031V23.0313H8.96875L12.6406 24.2031H20.6875C21.3347 24.2031 21.8594 23.6785 21.8594 23.0313C21.8594 22.384 21.3347 21.8594 20.6875 21.8594Z" fill="#711CD9" style="fill:#711CD9;fill:color(display-p3 0.4438 0.1093 0.8526);fill-opacity:1;"/>
</svg>
