<svg width="49" height="48" viewBox="0 0 49 48" fill="none" xmlns="http://www.w3.org/2000/svg">
<path d="M9.61235 32.1558V10.2199C9.61235 9.44456 10.2431 8.81376 11.0185 8.81376H16.3619V20.7217L21.9865 16.972L27.611 20.7217V8.81376H32.9544C33.7298 8.81376 34.3606 9.44456 34.3606 10.2199V19.6292H37.1729V10.2199C37.1729 7.89386 35.2805 6.00146 32.9544 6.00146H11.0185C8.69244 6.00146 6.80005 7.89386 6.80005 10.2199V32.1558C6.80005 34.4819 8.69244 36.3743 11.0185 36.3743H23.7893V33.562H11.0185C10.2431 33.562 9.61235 32.9312 9.61235 32.1558ZM24.7988 15.467L21.9865 13.5921L19.1742 15.467V8.81376H24.7988V15.467Z" fill="#CAE966" style="fill:#CAE966;fill:color(display-p3 0.7919 0.9135 0.4011);fill-opacity:1;"/>
<path d="M34.3607 22.2043L25.9238 25.5791V30.2079C25.9238 30.4462 25.5307 38.4666 34.3607 41.9987C43.1906 38.4666 42.7976 30.4472 42.7976 30.2079V25.5791L34.3607 22.2043ZM39.9853 30.208C39.9853 33.9678 37.7959 37.336 34.3607 38.938C30.9254 37.3359 28.7361 33.9678 28.7361 30.208V27.4832L34.3607 25.2333L39.9853 27.4832V30.208Z" fill="#CAE966" style="fill:#CAE966;fill:color(display-p3 0.7919 0.9135 0.4011);fill-opacity:1;"/>
</svg>
