<svg width="48" height="48" viewBox="0 0 48 48" fill="none" xmlns="http://www.w3.org/2000/svg">
<g clip-path="url(#clip0_2011_170)">
<path d="M34.5288 27.7634C31.663 27.7634 29.3315 30.0949 29.3315 32.9607C29.3315 35.8265 31.663 38.158 34.5288 38.158C37.3951 38.158 39.7261 35.8265 39.7261 32.9607C39.7261 30.0949 37.3946 27.7634 34.5288 27.7634ZM34.5288 35.5593C33.0957 35.5593 31.9302 34.3938 31.9302 32.9607C31.9302 31.5276 33.0957 30.3621 34.5288 30.3621C35.9619 30.3621 37.1274 31.5276 37.1274 32.9607C37.1274 34.3939 35.9619 35.5593 34.5288 35.5593Z" fill="#f7a001" style="fill:#f7a001;fill:color(display-p3 0.7919 0.9135 0.4011);fill-opacity:1;"/>
<path d="M16.7715 27.7634C13.9057 27.7634 11.5742 30.0949 11.5742 32.9607C11.5742 35.8265 13.9057 38.158 16.7715 38.158C19.6373 38.158 21.9688 35.8265 21.9688 32.9607C21.9688 30.0949 19.6373 27.7634 16.7715 27.7634ZM16.7715 35.5593C15.3384 35.5593 14.1729 34.3938 14.1729 32.9607C14.1729 31.5276 15.3384 30.3621 16.7715 30.3621C18.2042 30.3621 19.3701 31.5276 19.3701 32.9607C19.3701 34.3939 18.2046 35.5593 16.7715 35.5593Z" fill="#f7a001" style="fill:#f7a001;fill:color(display-p3 0.7919 0.9135 0.4011);fill-opacity:1;"/>
<path d="M38.0286 12.8871C37.8077 12.4484 37.3586 12.1716 36.8675 12.1716H30.0244V14.7703H36.0662L39.6042 21.8073L41.9266 20.6396L38.0286 12.8871Z" fill="#f7a001" style="fill:#f7a001;fill:color(display-p3 0.7919 0.9135 0.4011);fill-opacity:1;"/>
<path d="M30.6308 31.7047H20.7993V34.3033H30.6308V31.7047Z" fill="#f7a001" style="fill:#f7a001;fill:color(display-p3 0.7919 0.9135 0.4011);fill-opacity:1;"/>
<path d="M12.8736 31.7047H8.36934C7.65166 31.7047 7.07007 32.2864 7.07007 33.004C7.07007 33.7217 7.65174 34.3033 8.36934 34.3033H12.8736C13.5913 34.3033 14.1729 33.7216 14.1729 33.004C14.1729 32.2863 13.5913 31.7047 12.8736 31.7047Z" fill="#f7a001" style="fill:#f7a001;fill:color(display-p3 0.7919 0.9135 0.4011);fill-opacity:1;"/>
<path d="M44.3473 23.7615L41.7916 20.4699C41.5461 20.1528 41.1671 19.9675 40.7656 19.9675H31.3239V10.8723C31.3239 10.1546 30.7422 9.573 30.0246 9.573H8.36934C7.65166 9.573 7.07007 10.1547 7.07007 10.8723C7.07007 11.5899 7.65174 12.1716 8.36934 12.1716H28.7252V21.2667C28.7252 21.9844 29.3069 22.566 30.0245 22.566H40.1293L42.0215 25.0035V31.7045H38.4267C37.709 31.7045 37.1275 32.2862 37.1275 33.0038C37.1275 33.7215 37.7091 34.3031 38.4267 34.3031H43.3208C44.0385 34.3031 44.6201 33.7214 44.6202 33.0038V24.5584C44.6202 24.2699 44.524 23.9893 44.3473 23.7615Z" fill="#f7a001" style="fill:#f7a001;fill:color(display-p3 0.7919 0.9135 0.4011);fill-opacity:1;"/>
<path d="M12.7871 25.1216H6.81026C6.09258 25.1216 5.51099 25.7033 5.51099 26.4209C5.51099 27.1385 6.09266 27.7201 6.81026 27.7201H12.7871C13.5047 27.7201 14.0863 27.1385 14.0863 26.4209C14.0864 25.7033 13.5047 25.1216 12.7871 25.1216Z" fill="#f7a001" style="fill:#f7a001;fill:color(display-p3 0.7919 0.9135 0.4011);fill-opacity:1;"/>
<path d="M15.7754 20.0109H4.68795C3.97034 20.0109 3.38867 20.5925 3.38867 21.3102C3.38867 22.0279 3.97034 22.6095 4.68795 22.6095H15.7754C16.4931 22.6095 17.0747 22.0278 17.0747 21.3102C17.0747 20.5926 16.4931 20.0109 15.7754 20.0109Z" fill="#f7a001" style="fill:#f7a001;fill:color(display-p3 0.7919 0.9135 0.4011);fill-opacity:1;"/>
<path d="M17.8978 14.9003H6.81026C6.09258 14.9003 5.51099 15.4819 5.51099 16.1995C5.51099 16.9172 6.09266 17.4988 6.81026 17.4988H17.8978C18.6154 17.4988 19.197 16.9172 19.197 16.1995C19.1971 15.4819 18.6154 14.9003 17.8978 14.9003Z" fill="#f7a001" style="fill:#f7a001;fill:color(display-p3 0.7919 0.9135 0.4011);fill-opacity:1;"/>
</g>
<defs>
<clipPath id="clip0_2011_170">
<rect width="48" height="48" fill="white" style="fill:white;fill-opacity:1;"/>
</clipPath>
</defs>
</svg>
