<svg width="49" height="48" viewBox="0 0 49 48" fill="none" xmlns="http://www.w3.org/2000/svg">
<g clip-path="url(#clip0_2011_231)">
<path d="M45.5938 44.6447L43.1329 20.5275C43.0688 19.8995 42.5399 19.4219 41.9087 19.4219H34.479C34.2724 17.3981 34.0655 15.4864 33.8597 13.7785C33.7851 13.1604 33.2606 12.6953 32.638 12.6953H27.3072V11.0137C27.3072 7.14639 24.1609 4 20.2935 4C16.4261 4 13.2797 7.14631 13.2797 11.0137V12.6953H7.94558C7.32255 12.6953 6.79796 13.1609 6.72381 13.7795C6.2048 18.1131 4.12498 40.3157 3.60884 44.6232C3.567 44.9725 3.67668 45.323 3.91022 45.5862C4.14376 45.8494 4.47878 46 4.83061 46H44.3697C44.7177 46 45.0495 45.8526 45.2828 45.5943C45.5161 45.336 45.6292 44.9909 45.5938 44.6447ZM36.4947 21.8828V26.374C36.4947 27.2573 36.0516 28.0585 35.3599 28.5426C35.1504 26.3077 34.9383 24.0545 34.7251 21.8828H36.4947ZM15.7407 11.0137C15.7407 8.50327 17.783 6.46094 20.2935 6.46094C22.8039 6.46094 24.8462 8.50327 24.8462 11.0137V12.6953H15.7407V11.0137ZM9.04029 15.1562H13.2797V18.1094C13.2797 18.7889 13.8307 19.3398 14.5102 19.3398C15.1898 19.3398 15.7407 18.7889 15.7407 18.1094V15.1562H24.8462V18.1094C24.8462 18.7889 25.3972 19.3398 26.0767 19.3398C26.7562 19.3398 27.3072 18.7889 27.3072 18.1094V15.1562H31.544C32.025 19.3284 33.9099 39.4501 34.3741 43.5391H6.21284C6.68091 39.4173 8.56566 19.2964 9.04029 15.1562ZM36.8511 43.5391C36.4369 39.9278 36.0168 35.5425 35.6059 31.1667C37.5858 30.4383 38.9556 28.533 38.9556 26.374V21.8828H40.7975L43.0072 43.5391H36.8511Z" fill="#CAE966" style="fill:#CAE966;fill:color(display-p3 0.7919 0.9135 0.4011);fill-opacity:1;"/>
<path d="M24.2925 25.6747C23.7039 25.3347 22.9513 25.5365 22.6116 26.125L15.3519 38.6993C15.012 39.2879 15.2137 40.0404 15.8022 40.3801C15.996 40.492 16.2075 40.5451 16.4163 40.5451C16.8416 40.5451 17.2552 40.3245 17.483 39.9297L24.7428 27.3555C25.0827 26.7669 24.881 26.0144 24.2925 25.6747Z" fill="#CAE966" style="fill:#CAE966;fill:color(display-p3 0.7919 0.9135 0.4011);fill-opacity:1;"/>
<path d="M17.3375 31.7146C18.3552 29.9518 17.7491 27.6897 15.9864 26.672C14.2237 25.6544 11.9617 26.2604 10.9437 28.0231C9.92607 29.7859 10.5322 32.0479 12.295 33.0657C12.8639 33.3942 13.495 33.5619 14.1347 33.5619C14.4553 33.5619 14.7781 33.5197 15.0961 33.4345C16.0485 33.1792 16.8445 32.5684 17.3375 31.7146ZM15.2063 30.4841C14.867 31.0716 14.1129 31.2737 13.5254 30.9345C12.9378 30.5952 12.7358 29.8411 13.075 29.2536C13.3026 28.8592 13.7171 28.6386 14.1428 28.6386C14.3514 28.6386 14.5626 28.6916 14.756 28.8032C15.3435 29.1424 15.5455 29.8965 15.2063 30.4841Z" fill="#CAE966" style="fill:#CAE966;fill:color(display-p3 0.7919 0.9135 0.4011);fill-opacity:1;"/>
<path d="M28.2919 33.0703C27.438 32.5772 26.4432 32.4465 25.4908 32.7015C24.5384 32.9567 23.7424 33.5676 23.2494 34.4214C22.2318 36.1841 22.8378 38.4462 24.6005 39.4641C25.1694 39.7925 25.8006 39.9602 26.4403 39.9602C26.7608 39.9602 27.0837 39.918 27.4017 39.8328C28.354 39.5777 29.1501 38.9667 29.6431 38.1128C30.1361 37.259 30.267 36.2642 30.0119 35.3118C29.7565 34.3593 29.1457 33.5633 28.2919 33.0703ZM27.5117 36.8824C27.3474 37.1671 27.0821 37.3706 26.7646 37.4557C26.4471 37.5408 26.1155 37.497 25.831 37.3328C25.2434 36.9935 25.0414 36.2395 25.3806 35.6519C25.6082 35.2576 26.0226 35.0369 26.4483 35.0369C26.6569 35.0369 26.8681 35.0899 27.0615 35.2016C27.649 35.5408 27.851 36.2948 27.5117 36.8824Z" fill="#CAE966" style="fill:#CAE966;fill:color(display-p3 0.7919 0.9135 0.4011);fill-opacity:1;"/>
</g>
<defs>
<clipPath id="clip0_2011_231">
<rect width="48" height="48" fill="white" style="fill:white;fill-opacity:1;" transform="translate(0.600098)"/>
</clipPath>
</defs>
</svg>
