<svg width="130" height="54" viewBox="0 0 130 54" fill="none" xmlns="http://www.w3.org/2000/svg">
<path d="M37.1696 0.416763C57.7694 0.416763 74.3393 17.8702 74.3393 39.2367H70.9636C70.9636 19.5882 55.7621 3.79241 37.1696 3.79241C18.5772 3.79242 3.37565 19.5882 3.37565 39.2367H0C1.6646e-06 17.8702 16.5699 0.416769 37.1696 0.416763Z" fill="url(#paint0_linear_2001_3421)" style=""/>
<path d="M99.1972 53.5832C82.1183 53.5832 68.3944 39.1572 68.3944 21.5146H71.77C71.77 37.4297 84.1166 50.2076 99.1972 50.2076C114.278 50.2076 126.624 37.4297 126.624 21.5146H130C130 39.1572 116.276 53.5832 99.1972 53.5832Z" fill="url(#paint1_linear_2001_3421)" style=""/>
<path d="M101.657 39.2367L108.103 30.3503L101.849 21.5736H107.115L110.763 26.8397L114.438 21.5736H119.704L113.451 30.3503L119.896 39.2367H114.575L110.763 33.8884L106.978 39.2367H101.657Z" fill="white" style="fill:white;fill-opacity:1;"/>
<path d="M88.3176 39.2367V21.5736H101.346V24.9746H92.7334V28.6773H100.331V32.1331H92.7334V35.8358H101.346V39.2367H88.3176Z" fill="white" style="fill:white;fill-opacity:1;"/>
<path d="M66.8892 39.2367V21.5736H75.5836C76.9915 21.5736 78.1526 21.8571 79.0668 22.4239C79.9811 22.9724 80.6576 23.7221 81.0964 24.6729C81.5535 25.6237 81.7821 26.6934 81.7821 27.8819C81.7821 29.0887 81.5261 30.1583 81.0141 31.0909C80.5022 32.0234 79.7708 32.7548 78.82 33.285C77.8874 33.797 76.7721 34.053 75.4739 34.053H71.3049V39.2367H66.8892ZM71.3049 30.652H74.4865C75.419 30.652 76.1138 30.396 76.5709 29.8841C77.0463 29.3721 77.2841 28.6956 77.2841 27.8545C77.2841 26.9402 77.0646 26.2363 76.6258 25.7426C76.2053 25.2306 75.5379 24.9746 74.6236 24.9746H71.3049V30.652Z" fill="white" style="fill:white;fill-opacity:1;"/>
<path d="M46.3853 39.2367V21.5736H50.7462L55.5459 31.3651L60.3182 21.5736H64.6517V39.2367H60.236V29.0887L56.7527 36.2197H54.3117L50.801 29.0887V39.2367H46.3853Z" fill="white" style="fill:white;fill-opacity:1;"/>
<path d="M36.166 39.511C34.5204 39.511 33.0851 39.2459 31.86 38.7156C30.6532 38.1854 29.7115 37.3991 29.035 36.3569C28.3767 35.3146 28.0476 34.0347 28.0476 32.5171V21.5736H32.4634V32.1057C32.4634 33.3307 32.7834 34.245 33.4233 34.8484C34.0633 35.4518 34.9775 35.7535 36.166 35.7535C37.3546 35.7535 38.2688 35.4518 38.9088 34.8484C39.5487 34.245 39.8687 33.3307 39.8687 32.1057V21.5736H44.2845V32.5171C44.2845 34.0347 43.9462 35.3146 43.2697 36.3569C42.6114 37.3991 41.6698 38.1854 40.4447 38.7156C39.2379 39.2459 37.8117 39.511 36.166 39.511Z" fill="white" style="fill:white;fill-opacity:1;"/>
<path d="M19.5888 39.511C18.8391 39.511 18.1168 39.4561 17.422 39.3464C16.7455 39.255 16.1147 39.0996 15.5295 38.8802V35.1775C15.9684 35.3604 16.4621 35.5066 17.0106 35.6163C17.5592 35.7078 18.1168 35.7535 18.6837 35.7535C19.7625 35.7535 20.5213 35.5432 20.9601 35.1227C21.4172 34.6838 21.6458 33.9616 21.6458 32.9559V21.5736H26.0616V33.7787C26.0616 35.6255 25.513 37.0426 24.4159 38.0299C23.3189 39.0173 21.7098 39.511 19.5888 39.511Z" fill="white" style="fill:white;fill-opacity:1;"/>
<circle cx="83.1628" cy="37.9709" r="2.10978" fill="#DDFF6F" style="fill:#DDFF6F;fill:color(display-p3 0.8684 1.0000 0.4359);fill-opacity:1;"/>
<defs>
<linearGradient id="paint0_linear_2001_3421" x1="40.1513" y1="10.4593" x2="67.3475" y2="24.4118" gradientUnits="userSpaceOnUse">
<stop stop-color="#CEF357" style="stop-color:#CEF357;stop-color:color(display-p3 0.8078 0.9529 0.3412);stop-opacity:1;"/>
<stop offset="1" stop-color="#CEF357" stop-opacity="0" style="stop-color:none;stop-opacity:0;"/>
</linearGradient>
<linearGradient id="paint1_linear_2001_3421" x1="109.076" y1="49.3637" x2="69.4609" y2="36.6211" gradientUnits="userSpaceOnUse">
<stop stop-color="#CEF357" style="stop-color:#CEF357;stop-color:color(display-p3 0.8078 0.9529 0.3412);stop-opacity:1;"/>
<stop offset="1" stop-color="#CEF357" stop-opacity="0" style="stop-color:none;stop-opacity:0;"/>
</linearGradient>
</defs>
</svg>
