<svg width="30" height="30" viewBox="0 0 30 30" fill="none" xmlns="http://www.w3.org/2000/svg">
<path d="M5.88757 19.8935V6.73193C5.88757 6.26672 6.26605 5.88824 6.73126 5.88824H9.93728V13.033L13.312 10.7832L16.6868 13.033V5.88824H19.8928C20.358 5.88824 20.7365 6.26672 20.7365 6.73193V12.3775H22.4239V6.73193C22.4239 5.3363 21.2884 4.20087 19.8928 4.20087H6.73126C5.33563 4.20087 4.2002 5.3363 4.2002 6.73193V19.8935C4.2002 21.2891 5.33563 22.4246 6.73126 22.4246H14.3938V20.7372H6.73126C6.26605 20.7372 5.88757 20.3587 5.88757 19.8935ZM14.9994 9.88016L13.312 8.75523L11.6247 9.88016V5.88824H14.9994V9.88016Z" fill="#711CD9" style="fill:#711CD9;fill:color(display-p3 0.4438 0.1093 0.8526);fill-opacity:1;"/>
<path d="M20.7366 13.9226L15.6744 15.9475V18.7248C15.6744 18.8677 15.4386 23.68 20.7366 25.7992C26.0345 23.68 25.7987 18.8683 25.7987 18.7248V15.9475L20.7366 13.9226ZM24.1113 18.7248C24.1113 20.9807 22.7977 23.0016 20.7366 23.9628C18.6754 23.0015 17.3618 20.9807 17.3618 18.7248V17.0899L20.7366 15.74L24.1113 17.0899V18.7248Z" fill="#CAE966" style="fill:#CAE966;fill:color(display-p3 0.7919 0.9135 0.4011);fill-opacity:1;"/>
</svg>
