<svg xmlns="http://www.w3.org/2000/svg" width="60" height="61" fill="none"><path fill="url(#a)" d="M0 30.5C0 13.932 13.432.5 30 .5c16.569 0 30 13.432 30 30 0 16.569-13.431 30-30 30-16.568 0-30-13.431-30-30"/><path stroke="#fff" stroke-width="2" d="M28.959 22.125a3.17 3.17 0 0 1 3.167 3.167v3.083h2.041l.016.003q.007.003.014.01.006.006.009.013l.002.016v8.333l-.002.015a.04.04 0 0 1-.023.024l-.016.003H23.75l-.015-.003-.014-.01-.01-.014-.002-.015v-8.333q0-.011.002-.016l.01-.014.014-.01.015-.002h2.041v-3.083a3.17 3.17 0 0 1 3.168-3.167Zm0 .083a3.087 3.087 0 0 0-3.084 3.084v3.083h6.167v-3.083c0-1.7-1.383-3.084-3.084-3.084Z" style="stroke:#fff;stroke-opacity:1"/><path fill="#fff" d="M46.013 24.325a1.04 1.04 0 0 0-1.352.581l-.623 1.559c-1.787-6.665-7.86-11.59-15.08-11.59-8.616 0-15.624 7.008-15.624 15.625s7.008 15.625 15.625 15.625c4.173 0 8.098-1.625 11.05-4.575a1.042 1.042 0 0 0-1.473-1.473 13.47 13.47 0 0 1-9.577 3.965c-7.467 0-13.542-6.075-13.542-13.542s6.075-13.542 13.542-13.542c6.502 0 11.946 4.609 13.244 10.73l-2.09-2.092a1.043 1.043 0 0 0-1.473 1.473l4.167 4.166a1.03 1.03 0 0 0 .946.286c.344-.071.627-.309.756-.634l2.084-5.208a1.04 1.04 0 0 0-.58-1.354" style="fill:#fff;fill-opacity:1"/><defs><linearGradient id="a" x1="0" x2="60" y1="39.63" y2="39.63" gradientUnits="userSpaceOnUse"><stop stop-color="#711CD9" style="stop-color:#711cd9;stop-color:color(display-p3 .4431 .1098 .851);stop-opacity:1"/><stop offset="1" stop-color="#fff" style="stop-color:white;stop-opacity:1"/></linearGradient></defs></svg>