<svg id="Слой_1" data-name="Слой 1" xmlns="http://www.w3.org/2000/svg" viewBox="0 0 277.7 76.9">
    <defs>
        <style>.cls-1{fill:#ffd509;}</style>
    </defs>
    <title>logo_wite</title>
    <path class="cls-1"
          d="M108,39.3c5.4.9,11,3.9,11,10.1,0,7.4-7,10-12.2,10a14.52,14.52,0,0,1-11.9-6.1l4.5-4.8a10.51,10.51,0,0,0,7.5,3.6c1.7.1,3.8-1.1,3.8-2.8,0-2.3-2.4-2.6-4-2.9-5.1-.9-10.4-4.1-10.5-10.1,0-6.4,5.7-9.9,11.7-9.9,3.2,0,6.9,1.1,10.5,4.9l-4.5,4.6a10.14,10.14,0,0,0-6.1-2.3c-1.4,0-3.7,1-3.7,3a2.64,2.64,0,0,0,2.1,2.2A6.07,6.07,0,0,0,108,39.3Z"
          transform="translate(-4.9 -4.8)"/>
    <path class="cls-1"
          d="M139.5,59.5c-9.4,0-16.5-6.8-16.5-16.4,0-9.9,7.1-16.5,16.5-16.5s16.4,6.6,16.4,16.5C155.9,52.7,148.9,59.5,139.5,59.5Zm0-7.7c3.9,0,8.1-3,8.1-8.7,0-6.1-4.2-8.7-8.1-8.7a8.29,8.29,0,0,0-8.3,8.7A8.42,8.42,0,0,0,139.5,51.8Z"
          transform="translate(-4.9 -4.8)"/>
    <path class="cls-1"
          d="M177.3,21.8c-4-.6-6.3.6-6.3,3.4v2.2h6.3V34h-6.2V58.6h-8.5V34h-4.3V27.4h4.3V25.2c-.2-7.9,7.1-11.1,14.7-9.8Z"
          transform="translate(-4.9 -4.8)"/>
    <path class="cls-1"
          d="M196.1,59.5c-9.4,0-16.5-6.8-16.5-16.4,0-9.9,7.1-16.5,16.5-16.5s16.4,6.6,16.4,16.5C212.6,52.7,205.5,59.5,196.1,59.5Zm0-7.7c3.9,0,8.1-3,8.1-8.7,0-6.1-4.2-8.7-8.1-8.7a8.29,8.29,0,0,0-8.3,8.7A8.54,8.54,0,0,0,196.1,51.8Z"
          transform="translate(-4.9 -4.8)"/>
    <path class="cls-1"
          d="M226.1,27.4l1.2,2.8c1.8-2.3,4.8-3.4,8.3-3.2,6.9.4,12.5,5.6,12.5,13.6v18h-8.4V41c0-6.2-7-8.9-12.1-5.5V58.7h-8.4V27.4Z"
          transform="translate(-4.9 -4.8)"/>
    <path class="cls-1"
          d="M276,58.6l-1.1-2.8a9.54,9.54,0,0,1-7.5,3.4c-8.2,0-12.6-4.9-12.6-10.8,0-7.1,6.8-10.7,13.5-10.5a20,20,0,0,1,6,1.2c-.2-4.4-3-6-6.2-6a14.59,14.59,0,0,0-8.6,2.5l-2.8-5.2a18.2,18.2,0,0,1,12.1-4c7.1,0,13.8,3.8,13.8,12.9V58.6Zm-1.6-8.4V45.3a13.49,13.49,0,0,0-5.5-1.1c-3.2,0-6.2,1.2-6.3,4.1C262.5,53.9,271.3,53.5,274.4,50.2Z"
          transform="translate(-4.9 -4.8)"/>
    <path class="cls-1"
          d="M38.3,4.8,4.9,24V62.5L38.2,81.7,71.5,62.5V24Zm-1.1,61c-5.2,0-11.8-2.1-15.6-10.9l7.1-4.1h0c2.2,4.7,6,6.6,8.7,6.6,3.6.1,6.1-2.3,6.2-5.2.3-4.3-3.9-6.1-7.1-6.9C31.8,44.1,22.9,41,23,31.7s7.7-13.2,14.7-13.2C43.1,18.5,48,21,51,26.9l-7,4h0A7,7,0,0,0,37.6,27c-2.7-.1-5.4,1.2-5.6,4.7s3.9,4.9,6.6,5.6c7.1,1.8,14.5,5.2,14.1,15.5C52.5,61.7,44.6,65.8,37.2,65.8Z"
          transform="translate(-4.9 -4.8)"/>
</svg>